<?xml version="1.0"?><svg width="370.29501" height="370.29498" xmlns="http://www.w3.org/2000/svg">
 <title>Red and Black Globe</title>

 <metadata id="metadata2695">image/svg+xml</metadata>
 <g>
  <title>Layer 1</title>
  <a transform="matrix(0.237541 0 0 0.237541 315.918 169.758)" id="a7312">
   <path fill="#000000" stroke="#000000" stroke-width="2.147373" stroke-miterlimit="4" id="path1961" d="m220.914993,64.7864a771.432983,771.432983 0 1 1 -1542.864944,0a771.432983,771.432983 0 1 1 1542.864944,0z"/>
  </a>
  <path fill="#ff0000" fill-rule="evenodd" stroke="#000000" stroke-width="0" stroke-miterlimit="4" id="path3742" d="m119.315002,69.091599c2.520996,5.043701 -1.215004,9.692001 2.713997,14.931198c3.890999,5.186905 6.069008,9.521301 12.894997,6.1082c6.82901,-3.414299 6.555008,6.340607 3.393997,9.501602c-1.304993,1.305405 -10.792992,0 -12.894997,0c-6.489998,0 -9.199997,-0.175598 -12.894997,4.750404c-3.433998,4.578995 -7.902,5.913994 -5.43,10.859993c1.75,3.5 -0.032997,10.925003 -1.357002,13.572998c-2.215996,4.432999 -2.93,9.072006 -0.679001,13.574005c2.148003,4.296005 9.502007,7.789001 9.502007,0.679001c0,-6.699005 3.923996,-6.639008 8.143997,-10.858994c2.723,-2.724014 -0.211998,-10.647003 3.393997,-14.253006c4.112999,-4.112999 6.497002,6.888 7.465004,8.822998c2.705994,5.412003 3.654999,8.171005 8.143997,11.537994c3.356995,2.517014 4.651001,10.759003 7.466003,13.574005c4.261002,4.259995 -3.584,10.942001 -4.072006,12.895004c-1.485992,5.944992 -6.723999,5.169998 -12.216995,4.071991c-7.207001,-1.441986 -7.209,-1.019989 -11.537003,4.751007c-2.369995,3.160004 5.025002,10.317001 -3.393997,6.108002c-5.449997,-2.725006 -8.127998,3.386002 -12.216003,5.429001c-4.475998,2.237991 -9.871094,-3.27301 -11.537895,3.393997c-1.427902,5.712006 -1.276299,10.229004 -8.144302,6.108002c-4.7761,-2.865997 -7.969002,4.401001 -10.180298,8.822998c-2.854904,5.710007 1.456398,9.113007 -4.750801,12.216995c-7.476299,3.738007 -1.357399,-5.353989 -1.357399,-8.144989c0,-4.142014 -5.627602,-10.576004 -7.465603,-14.251999c-2.692101,-5.384003 -5.1185,-6.709015 -10.858997,-8.145004c-6.685001,-1.671005 -9.233501,2.858002 -11.537701,7.466003c-2.181499,4.362991 0.4347,9.119995 -0.678699,13.57399c-1.412502,5.650009 4.680397,8.858002 8.822899,6.787003c5.608501,-2.804001 9.3606,2.856003 5.4296,6.787003c-4.3703,4.369995 -5.3311,4.656006 -0.678699,10.858994c5.4641,7.285004 3.393398,1.653 3.393398,10.859009c0,2.713989 0,5.429001 0,8.143997c0,2.649002 -0.353397,5.479004 3.478302,7.805008c4.6506,2.822998 6.901997,4.549988 11.834599,3.562988c4.215302,-0.842987 7.040802,0.830994 10.477303,2.205994c4.8638,1.945007 7.389297,7.69101 11.537697,10.180023c5.305901,3.18399 9.469612,5.280975 14.931602,7.465973c4.173996,1.669006 9.614998,3.997009 12.215996,7.465027c3.041,4.054993 7.167,8.089996 10.859009,10.858978c4.328995,3.247009 9.575989,4.145996 13.57399,8.14502c3.725998,3.725983 7.38501,3.964996 11.53801,9.500977c3.901001,5.202026 9.337997,5.687012 14.251999,8.144012c4.279999,2.140991 7.444992,-6.807007 12.894989,-1.356995c2.840012,2.839996 7.414001,6.582001 8.144012,9.501984c1.363998,5.456024 -5.807999,7.464996 -9.501007,7.464996c-2.893005,0 -0.393997,0.591003 -1.358002,2.036011c-3.647995,0 -2.041992,8.147003 -5.429001,9.502014c-1.625,0.649994 -3.955994,0.988983 -5.429993,1.356995l-3.393005,0c-0.904999,-0.226013 -1.809998,-0.451996 -2.714996,-0.678009c-2.925995,-0.731995 -10.690994,4.666992 -13.574005,6.108002c-3.636993,1.817993 -9.873993,1.076996 -13.65799,2.968994c-15.67701,-4.955994 -32.060005,-12.220001 -46.151207,-20.529999c-0.487411,-0.339996 1.535011,-12.794983 0.0849,-15.695007c-2.255898,-4.511993 -6.401802,-9.065979 -10.8591,-10.179993c-5.9907,-1.497986 -9.627899,-8.649994 -10.859001,-13.574005c-1.339798,-5.358978 -3.178001,-10.072998 -7.4655,-12.216003c-7.1996,-3.599976 -0.6478,-8.498993 2.714699,-10.181c4.803299,-2.40097 6.509514,-8.881989 3.393402,-12.215973c-5.153099,-5.513 -7.257599,-3.799011 -11.537701,-5.939026c-3.512299,-1.755981 -6.423298,-3.465973 -7.465599,-7.634979c-1.1423,-4.569 -3.579498,-8.889008 -4.750801,-13.574005c-1.171997,-4.688004 -2.2644,-9.057007 -3.393398,-13.572998c-0.523602,-2.095001 -7.144199,-9.979004 -8.823,-12.21701c-3.728701,-14.421997 -7.429501,-24.416 -7.423101,-27.274994c0.020302,-9.188004 3.170401,-5.789993 3.0541,-10.052994c-0.205898,-7.542999 0.040201,-10.581009 1.569401,-15.525009c0.9188,-2.970001 2.508801,-4.640991 1.4422,-8.90799c-1.3018,-5.207001 -0.521799,-9.815002 1.6119,-14.082001c2.585201,-5.171005 3.563099,-5.336014 3.563099,-11.665009c0,-7.158997 6.136002,-13.164001 12.470901,-16.331001c5.5728,-2.786995 9.699398,-7.564995 14.931198,-10.181c4.616302,-2.3078 11.704498,-5.084 14.252502,-10.18c2.294296,-4.588699 4.536499,-9.073097 6.786896,-13.573799c0.776703,-1.553398 -0.391396,-3.113594 0.339302,-4.538696c3.587898,-6.996704 2.979904,-6.243401 10.519699,-11.071102c3.362801,-3.362801 8.823204,-8.681198 8.823204,-13.573799c0,-5.482899 -2.111,-8.748001 2.035995,-12.8951c2.034004,-2.034199 10.824005,-0.678699 13.574005,-0.678699c6.171997,0 8.291,0.686798 13.572998,2.799599c7.330994,2.9324 0.177002,7.798401 -3.223007,11.198399c-8.685997,6.080502 -11.279991,8.569302 -10.349991,21.2938z"/>
  <path fill="#ff0000" fill-rule="evenodd" stroke="#000000" stroke-width="0" stroke-miterlimit="4" id="path5518" d="m166.143997,84.362198c-0.791992,1.244202 -1.582993,2.488503 -2.375,3.732704c-1.744003,2.739601 1.408005,0.635201 3.054001,4.7509c1.145004,2.8638 -0.252991,4.503395 0.339005,7.465195c0.636993,3.185005 2.916,5.699005 3.393997,9.163002c0.167007,1.212997 -2.897003,5.124001 -3.733002,6.108002c-3.065002,3.604996 -1.309998,9.130997 -2.035995,13.574005c-0.734009,2.932999 3.39299,5.97699 3.39299,8.822998c0,2.266998 2.894012,3.054001 4.751007,3.054001c3.587997,0 3.833008,-0.422012 4.751007,-2.715012c0.709991,-1.774994 0.987991,-5.750992 2.714996,-6.786987c1.209,-0.725006 5.429001,-3.465012 5.429001,-4.751007c0,-2.567001 3.949997,-4.968002 5.768997,-6.787003c2.044998,-2.044998 4.841995,-3.607994 7.125992,-4.75c3.347,-1.673996 4.412003,-2.710999 4.412003,-6.447998c0,-2.449997 -3.569,-5.908997 -3.054001,-8.484001c0.550003,-2.749298 -0.626999,-7.300598 -2.035995,-9.161995c-2.328003,-3.074905 -2.507996,-4.263901 -3.054993,-7.804901c-0.438004,-2.841805 -1.703003,-3.7295 -4.411011,-2.375404c-3.113998,1.557007 -5.029999,2.375404 -8.483994,2.375404c-2.048996,0 -4.225998,-0.339302 -6.447006,-0.339302c-3.552994,1.713501 -5.616989,1.2192 -9.501999,1.357399z"/>
  <path fill="#ff0000" fill-rule="evenodd" stroke="#000000" stroke-width="0" stroke-miterlimit="4" id="path5522" d="m243.912003,82.151398c-4.072006,-0.979698 -4.311005,0.307999 -7.296005,6.277901c-2.638,9.707199 1.290009,8.512802 2.376007,13.064705c0.955994,4.007996 3.39299,9.236 3.39299,13.233994c0,5.595001 0.979004,10.850006 6.447998,12.217003c6.548004,1.637001 6.400009,2.036003 12.725021,2.036003c7.002991,0 3.616974,-8.375999 2.03598,-11.538002c-2.488983,-4.976997 -4.787994,-8.681 -9.500992,-12.216003c-2.921997,-2.190994 -0.932007,-9.328796 3.39299,-0.679001c3.045013,6.091003 6.251007,7.537003 11.537994,10.18c5.936005,2.968002 3.833008,9.742004 0.678009,12.896004c-3.755005,3.754997 -6.43399,5.756004 -10.179993,9.500999c-2.315002,2.315002 -1.904999,10.335007 -2.714996,13.574005c-1.294006,5.179001 -7.363007,7.567993 -3.393005,11.537994c3.763,3.763 8.757996,1.180008 5.428986,9.501007c-2.353973,5.886993 -5.616989,5.231995 -9.500992,8.144989c-4.82399,3.617004 -3.237,7.098999 -0.679001,12.216003c2.731003,5.460999 1.447998,7.466003 8.822998,7.466003c7.029999,0 7.158997,1.662994 12.216003,-3.393997c2.304993,-2.304001 -0.73999,-10.442001 0,-13.404007c2.019989,-8.078003 5.216003,-3.080002 2.037018,-11.028992c-1.515015,-3.786011 3.895996,-9.671005 7.973999,-9.671005c4.100983,0 11.630981,6.847992 16.627991,5.598999c7.299011,-1.824997 -1.947998,-8.143997 -5.598999,-8.143997c-4.75,0 -12.46701,-3.331009 -4.071991,-5.430008c5.511993,-1.377991 3.100983,-1.940002 10.009979,-0.168991c2.916992,0.746994 3.115997,2.190994 5.223022,4.780991c1.594971,1.960007 3.037994,1.333008 6.484985,-0.029999c1.110992,-4.813995 -3.47699,-3.858994 -3.657013,-6.606995c-0.207001,-3.162003 2.788025,-4.382004 3.657013,-6.119003c2.058014,-4.115997 -4.188995,-8.440002 -5.089996,-12.046997c-1.132996,-4.531006 -2.373016,-17.306 2.884003,-17.306c5.346008,0 13.579987,1.552002 15.100983,7.635002c1.326996,5.308998 -6.112,9.171989 -8.143982,14.252998c-1.914001,4.783997 -4.104004,9.470001 -0.679016,12.895004c3.464996,3.463989 5.429016,-6.878006 5.429016,1.356995c0,5.470993 7.143005,-7.531006 7.466003,-8.822998c1.875977,-7.505005 5.428986,3.029999 5.428986,6.787003c0,5.39299 -1.514984,9.937988 -4.75,14.251999c-3.531982,4.709 -7.511993,4.843994 -10.181,10.181c-3.243011,6.487 -0.666992,7.459991 -7.464996,10.858994c-4.368011,2.184006 -11.036011,0.501999 -13.574005,-2.035995c-5.160004,-5.160004 -5.873993,-4.195999 -10.859009,2.035995c-3.685974,4.60701 -7.096985,7.096008 -10.858978,10.859009c-3.915009,3.914993 -9.776001,4.619995 -12.216003,9.501999c-2.158997,4.315994 -5.151001,9.938995 -4.072998,14.251999c1.402008,5.606995 -3.322006,9.429993 -6.787003,12.894989c-3.404007,3.405014 -5.059998,10.061005 -6.108002,14.253006c-1.671997,6.688004 0.014999,6.815994 2.714996,12.215988c1.186005,2.371002 -2.940994,10.857025 -3.393005,13.574005c-0.388,2.325012 8.728012,8.632996 10.180008,11.537018c1.919998,3.839996 9.181,1.036987 12.216003,4.072998c2.604004,2.604004 10.247009,-0.828003 12.894989,-1.358002c5.419006,-1.083008 8.376007,-4.390015 13.574005,-5.429016c3.071991,-0.61499 6.601013,-6.694 10.859009,-8.822998c4.816986,-2.408997 8.674988,-2.640991 12.894989,-4.751007c3.440002,-1.719971 -3.440002,9.818024 0,11.538025c4.785004,2.391998 7.757996,2.902985 6.109009,9.500977c-1.053009,4.212006 -2.987,7.455017 -4.412018,11.368011c-3.186981,8.75 -0.802979,5.894012 -1.017975,12.046997c14.757996,-17.82901 16.707977,-19.39801 28.504974,-39.024994c11.532013,-21.009995 18.302002,-39.626007 21.039001,-65.154007c0.473022,-4.404999 0.679016,-8.955994 0.679016,-13.572998c0,-4.37999 0.533997,-11.919998 -3.393005,-13.57399c-8.463989,-3.565002 -7.963989,-5.625 -16.289001,-8.145004c-3.958008,-1.977997 -10.553986,-8.423996 -9.501984,-12.895004c4.005981,-0.639999 8.413971,3.990997 12.265991,6.466003c4.03598,2.593002 4.796997,7.972 11.148987,9.822998c2.798004,-2.367004 -4.03598,-30.781998 -2.03598,-34.783005c-1.532013,-10.950989 -13.969025,-34.458992 -11.368011,-40.211998c-12.730011,-21.520195 -15.748993,-27.354897 -31.89801,-45.472397c-14,-15.7062 -31.108978,-27.1457 -50.053986,-36.6492c-22.814011,-10.219959 -43.817001,-15.993969 -69.225998,-15.609889c-5.924011,-0.58691 -5.432007,5.09017 -12.216003,5.09017c-5.197998,0 -8.190002,-2.70349 -13.574005,-1.35738c-1.388,0.34702 -2.714996,0.90492 -4.071991,1.35738c-5.072006,1.69042 -7.435013,9.09002 -12.21701,2.71472c-0.716995,-0.9564 16.535004,-3.94927 6.787003,-8.82292c-5.115005,-2.55757 -11.483002,5.95399 -8.822998,9.50162c1.526993,2.0352 -2.902008,6.1082 -8.822998,6.1082c-5.128006,0 -10.164001,-0.6147 -8.822998,4.750799c1.35199,5.408001 5.705002,-0.885201 -2.714005,5.4296c-5.089005,3.816299 7.944,1.6131 9.500992,0.6786c4.672012,-2.8029 8.031006,-3.3934 13.574005,-3.3934c4.109009,0 8.658997,-3.224899 12.895004,-4.0721c5.944,-1.1889 10.399002,1.127001 14.931,3.3934c2.005997,1.002701 11.014999,-1.774599 12.895004,-2.714701c7.515991,-3.7577 3.716995,1.3251 5.429993,4.750801c1.125,2.2505 8.404999,1.8794 10.859009,6.7869c3.03299,6.066799 0.618988,8.1147 7.464996,11.537701c0.408997,0.204399 6.901993,-2.2896 13.57399,2.714699c4.425003,3.3186 8.313004,1.581902 12.21701,6.7869c0.869003,1.158901 2.233994,2.026901 2.713989,3.393501c1.757004,4.995502 -1.04599,1.980099 2.376007,6.617199c0.684998,0.9282 2.432007,-0.282799 3.393005,4.750801c1.897995,9.933899 9.356003,12.9487 6.617996,16.9673c-2.411987,3.538597 -2.697998,0.714096 -11.369003,-3.902504c-0.444992,-0.111496 -1.197006,-0.678696 -1.356995,-0.678696c-1.098007,0 -1.916,-0.678703 -2.884003,-0.678703c-0.283005,0 -0.565994,0 -0.848999,0z"/>
 </g>
</svg>