<?xml version="1.0"?><svg width="400" height="400" xmlns="http://www.w3.org/2000/svg">
 <title>Red Skull</title>

 <g>
  <title>Layer 1</title>
  <g id="svg_122">
   <g id="g879" transform="matrix(0.651999 0 0 0.651999 -51.2309 -96.8247)">
    <g font-size="12px" fill="#000000" stroke="#000000" stroke-opacity="0.991228" id="g670">
     <path fill="#ff0000" fill-rule="evenodd" stroke="#000000" stroke-width="1pt" stroke-opacity="0.991228" id="path584" d="m390.097595,447.173859c-9.695984,7.373016 -11.852997,9.848999 -17.210999,18.007996c-1.938995,3.149017 -5.559998,10.507996 -6.549988,15.445007c-0.989014,4.936035 -1.730011,12.098022 -1.72699,15.890991c0.011993,12.853027 4.102997,20.916107 8.570984,20.63504c3.992004,-0.457947 9.071991,-4.620972 16.769989,-14.076019"/>
     <path fill="#ff0000" fill-rule="evenodd" stroke="#000000" stroke-width="1pt" stroke-linejoin="bevel" stroke-opacity="0.991228" id="path585" d="m397.07959,447.381958c9.695984,7.373016 11.852997,9.848999 17.210999,18.007996c1.938995,3.149017 5.559998,10.507996 6.549988,15.445038c0.989014,4.935974 1.730011,12.097961 1.72699,15.890991c-0.011963,12.852966 -4.102997,20.916046 -8.570984,20.634979c-3.992004,-0.457947 -9.071991,-4.620972 -16.769989,-14.075958"/>
     <path fill="#ff0000" fill-rule="evenodd" stroke="#000000" stroke-width="1pt" stroke-opacity="0.991228" id="path586" d="m307.679321,391.023834c13.460022,-2.359009 26.503021,-3.88501 39.963013,-5.411011c17.622986,-4.440979 26.503998,15.679993 21.646973,30.804993c-6.10498,13.460022 -14.707977,25.255035 -24.559967,36.633026c-7.632019,8.602997 -16.723999,9.994995 -25.394012,7.075989c-6.997986,-1.940002 -13.460999,-6.243011 -20.398987,-16.234009c-3.052002,-8.604004 -5.688019,-13.044983 -9.574005,-23.728973c-3.052002,-9.85202 1.695007,-24.600037 18.316986,-29.140015z"/>
     <path fill="#ff0000" fill-rule="evenodd" stroke="#000000" stroke-width="1pt" stroke-opacity="0.991228" id="path587" d="m479.761383,391.023834c-13.459991,-2.359009 -26.503021,-3.88501 -39.962982,-5.411011c-17.623016,-4.440979 -26.504028,15.679993 -21.647003,30.804993c6.10498,13.460022 14.707977,25.255035 24.559998,36.633026c7.631989,8.602997 16.723999,9.994995 25.393982,7.075989c6.998016,-1.940002 13.461029,-6.243011 20.399017,-16.234009c3.052002,-8.604004 5.687988,-13.044983 9.574005,-23.728973c3.052002,-9.85202 -1.695007,-24.600037 -18.317017,-29.140015z"/>
    </g>
    <g font-size="12px" stroke="#000000" stroke-opacity="0.991228" id="g775">
     <g fill="none" stroke="#000000" stroke-opacity="0.991228" id="g740">
      <g font-size="12px" fill="none" stroke="#000000" stroke-opacity="0.991228" id="g652">
       <path fill="#ff0000" fill-rule="evenodd" stroke="#000000" stroke-width="6.25" stroke-opacity="0.991228" id="path611" d="m307.434601,505.992889c5.690002,13.344025 7.450012,18.41507 11.553009,31.718048c3.496002,12.289001 4.781006,19.793945 6.94101,37.257996"/>
       <path fill="#ff0000" fill-rule="evenodd" stroke="#000000" stroke-width="6.25" stroke-opacity="0.991228" id="path612" d="m479.28891,505.256989c-5.690002,13.344025 -7.450012,18.41507 -11.553009,31.718048c-3.496002,12.289001 -4.780975,19.793945 -6.94101,37.257996"/>
       <g fill="none" stroke="#000000" stroke-opacity="0.991228" id="g637">
        <path fill="#ff0000" fill-rule="evenodd" stroke="#000000" stroke-width="5" stroke-opacity="0.991228" id="path588" d="m331.718628,537.194946c14.717987,9.026978 40.16098,10.418945 62.955963,10.008972c25.394012,-0.128967 47.133026,-1.963013 61.409027,-10.596985"/>
        <path fill="#ff0000" fill-rule="evenodd" stroke="#000000" stroke-width="5" stroke-opacity="0.991228" id="path608" d="m336.869629,560.744934c16.237976,10.203979 35.333984,13.707947 57.325989,12.877991c22.84198,-0.555969 40.350983,-2.478027 56.000977,-13.171997"/>
        <g fill="none" stroke="#000000" stroke-opacity="0.991228" id="g625">
         <path fill="#ff0000" fill-rule="evenodd" stroke="#000000" stroke-width="6.25" stroke-opacity="0.991228" id="path609" d="m325.095612,573.106934c17.367004,20.947998 41.608002,24.585022 69.173004,25.315002c29.518982,1.076965 59.165985,-10.64502 66.819,-25.314026"/>
         <g fill="none" stroke="#000000" stroke-opacity="0.991228" id="g615">
          <path fill="#ff0000" fill-rule="evenodd" stroke="#000000" stroke-width="5" stroke-opacity="0.991228" id="path589" d="m336.646606,541.718933l-0.415985,41.211975"/>
          <path fill="#ff0000" fill-rule="evenodd" stroke="#000000" stroke-width="5" stroke-opacity="0.991228" id="path592" d="m350.175629,546.089966l-0.208008,44.125977"/>
          <path fill="#ff0000" fill-rule="evenodd" stroke="#000000" stroke-width="5" stroke-opacity="0.991228" id="path593" d="m365.161621,547.962952l-0.416016,46.208008"/>
          <path fill="#ff0000" fill-rule="evenodd" stroke="#000000" stroke-width="5" stroke-opacity="0.991228" id="path594" d="m378.69162,549.003906l-0.209015,46.832031"/>
          <path fill="#ff0000" fill-rule="evenodd" stroke="#000000" stroke-width="5" stroke-opacity="0.991228" id="path595" d="m393.88562,549.419922l0,46.832031"/>
          <path fill="#ff0000" fill-rule="evenodd" stroke="#000000" stroke-width="5" stroke-opacity="0.991228" id="path598" d="m408.455597,549.211914l0.208008,46.832031"/>
          <path fill="#ff0000" fill-rule="evenodd" stroke="#000000" stroke-width="5" stroke-opacity="0.991228" id="path599" d="m421.568359,547.962952l0.415985,46"/>
          <path fill="#ff0000" fill-rule="evenodd" stroke="#000000" stroke-width="5" stroke-opacity="0.991228" id="path604" d="m436.762604,545.465942l0.208008,44.125977"/>
          <path fill="#ff0000" fill-rule="evenodd" stroke="#000000" stroke-width="5" stroke-opacity="0.991228" id="path606" d="m450.499603,540.053955l0.416992,41.627991"/>
         </g>
        </g>
       </g>
      </g>
      <g font-size="12px" fill="none" stroke="#000000" stroke-opacity="0.991228" id="g675">
       <path fill="#ff0000" fill-rule="evenodd" stroke="#000000" stroke-width="12.5" stroke-linecap="round" stroke-linejoin="round" stroke-opacity="0.991228" id="path573" d="m266.700623,423.023865c-19.136017,-18.603027 -32.509979,-50.888 -34.365982,-85.752014c-2.014999,-38.419983 18.218002,-76.570099 48.536972,-98.319138c33.968994,-23.909424 90.765991,-30.522018 126.082001,-28.737518c23.92099,0.016602 77.205994,12.420197 96.014984,26.427704c32.994049,23.990067 50.688019,58.039963 51.914032,96.84996c1.812988,38.983002 -14.606018,68.674988 -34.710999,87.205994"/>
       <path fill="#ff0000" fill-rule="evenodd" stroke="#000000" stroke-width="12.5" stroke-linejoin="round" stroke-opacity="0.991228" id="path580" d="m267.864624,313.729858c-7.751984,6.781982 -6.774017,16.97702 -5.378021,32.192017c1.10202,11.559998 8.477997,22.938965 8.865997,33.5c2.712006,22.285004 -3.875977,44.570007 -6.97699,62.78598c-2.131989,20.928009 3.877014,38.950012 11.627991,45.926025c7.751007,6.880005 17.756012,9.729004 28.268005,12.935974c9.550995,2.498047 14.503998,6.842041 21.727997,12.228058c8.606018,9.137024 10.658997,16.694031 10.464996,25.996033"/>
       <path fill="#ff0000" fill-rule="evenodd" stroke="#000000" stroke-width="12.5" stroke-linejoin="round" stroke-opacity="0.991228" id="path581" d="m520.263367,313.148468c7.752014,6.781982 6.774048,16.97702 5.378052,32.192017c-1.102051,11.559998 -8.478027,22.938965 -8.866028,33.5c-2.711975,22.285004 3.875977,44.570007 6.97699,62.78598c2.132019,20.928009 -3.876953,38.950043 -11.627991,45.925995c-7.751007,6.880005 -21.937012,10.575012 -28.268005,12.936035c-7.376984,2.580994 -14.919983,7.257996 -21.727997,12.644073c-8.190002,7.888 -10.658997,16.278015 -10.464996,25.580017"/>
       <path fill="#ff0000" fill-rule="evenodd" stroke="#000000" stroke-width="12.5" stroke-opacity="0.991228" id="path613" d="m290.023621,498.421906c6.937988,16.790009 14.291992,33.164032 14.985992,50.370026c-3.19101,13.875977 -2.220001,30.25 1.248993,43.294006c4.44101,17.900024 21.786011,39.130005 39.132019,46.20697c17.760986,6.452026 28.861969,8.117981 48.703979,8.117981"/>
       <path fill="#ff0000" fill-rule="evenodd" stroke="#000000" stroke-width="12.5" stroke-opacity="0.991228" id="path614" d="m497.125397,498.421844c-6.938019,16.79007 -14.292023,33.164093 -14.986023,50.370026c3.19101,13.876038 2.220001,30.25 -1.248993,43.294067c-4.440979,17.900024 -21.993988,38.505981 -39.339996,45.583008c-17.345001,7.076904 -28.445007,8.741943 -48.287994,8.741943"/>
      </g>
     </g>
     <g stroke="#000000" stroke-opacity="0.991228" id="g770">
      <path fill="#ff0000" fill-rule="evenodd" stroke="#000000" stroke-width="12.5" stroke-linejoin="round" stroke-opacity="0.991228" id="path765" d="m486.51062,577.098877l68.271973,31.638062c8.325012,3.468994 14.985046,2.359009 21.230042,0.415955c9.85199,-2.914001 17.622009,-1.247986 25.80896,2.082031c9.852051,4.994995 10.131042,12.07196 3.748047,19.148987c-5.828003,6.799011 -11.657043,10.268005 -18.733032,17.067017c-1.526978,10.962036 -0.555969,21.09198 -5.412964,31.221985c-6.105042,8.880005 -12.627014,7.354004 -22.89502,-2.082031c-10.406982,-8.04895 -6.661011,-16.928955 -21.647034,-29.972961l-63.27597,-32.885986l0,0"/>
      <path fill="#ff0000" fill-rule="evenodd" stroke="#000000" stroke-width="12.5" stroke-linejoin="round" stroke-opacity="0.991228" id="path766" d="m300.014618,576.682922c-22.757019,12.07196 -43.432007,23.311035 -69.518997,33.302002c-21.230988,5.27301 -20.397995,-7.77002 -46.207901,0.833008c-7.354385,5.828003 -7.215591,14.153015 -1.24881,20.396973c6.938217,6.799988 11.795013,11.10199 17.900711,17.069031c1.943008,8.603027 2.220016,15.95697 3.330017,26.224976c4.162979,12.628052 13.320969,11.934021 21.22998,5.829041c3.469009,-4.302063 7.771011,-8.187012 10.406998,-12.905029c3.608002,-6.243958 7.632004,-13.321045 12.488983,-19.148987l62.859009,-33.302979"/>
      <path fill="#ff0000" fill-rule="evenodd" stroke="#000000" stroke-width="12.5" stroke-linecap="square" stroke-linejoin="round" stroke-opacity="0.991228" id="path767" d="m496.501617,508.82785c25.810028,-12.765991 47.040009,-23.034973 70.35202,-34.552002c14.291992,-11.932983 10.684998,-23.450989 22.063965,-32.053986c11.239014,-10.684998 18.732056,-8.048004 22.89502,-2.080994c4.023987,10.128998 5.967041,20.259003 5.411987,30.804993c10.684021,9.85202 16.374023,15.540985 22.480042,24.562042c0.83197,11.377991 -9.158997,16.095032 -21.231018,16.234009c-15.819031,2.914032 -18.317017,-7.077026 -36.217041,0l-94.496979,44.542023l0,0"/>
      <path fill="#ff0000" fill-rule="evenodd" stroke="#000000" stroke-width="12.5" stroke-linejoin="round" stroke-opacity="0.991228" id="path769" d="m292.422607,509.815887c-26.100006,-12.756042 -47.783981,-22.273987 -73.589996,-36.501038c-14.031006,-11.186005 -9.516998,-23.843994 -26.491699,-34.145996c-7.457092,-3.727997 -12.853607,-5.395996 -18.838898,4.709991c-3.826691,9.028015 -3.532318,18.643005 -4.120987,27.965027c-6.672104,7.162018 -14.22731,11.381989 -19.722,20.311005c-7.947723,12.756042 4.120911,16.975037 10.596802,18.545044c18.446289,4.610992 25.118286,-3.729004 42.092804,-0.295044c33.066986,15.40506 66.426971,31.398041 98.315979,47.097076"/>
     </g>
    </g>
   </g>
   <g id="svg_14" transform="matrix(0.651999 0 0 0.651999 -51.2309 -96.8247)">
    <g id="svg_15" font-size="12px" fill="#000000" stroke="#000000" stroke-opacity="0.991228">
     <path id="svg_16" fill="#000000" fill-rule="evenodd" stroke="#000000" stroke-width="1pt" stroke-opacity="0.991228" d="m390.097534,447.174225c-9.696014,7.372986 -11.853027,9.848999 -17.210999,18.007996c-1.938995,3.148987 -5.559998,10.507996 -6.550018,15.445007c-0.988983,4.936005 -1.72998,12.097992 -1.72699,15.890991c0.011993,12.852997 4.102997,20.916046 8.571014,20.63504c3.991974,-0.458008 9.071991,-4.621033 16.769989,-14.07605"/>
     <path id="svg_17" fill="#000000" fill-rule="evenodd" stroke="#000000" stroke-width="1pt" stroke-linejoin="bevel" stroke-opacity="0.991228" d="m397.079529,447.382233c9.696075,7.372986 11.853088,9.848999 17.21109,18.007996c1.938995,3.148987 5.559998,10.507996 6.550018,15.445007c0.988983,4.935974 1.72998,12.097992 1.72699,15.890991c-0.012024,12.852997 -4.102997,20.916046 -8.571014,20.63504c-3.992004,-0.458008 -9.072083,-4.621033 -16.770081,-14.07605"/>
     <path id="svg_18" fill="#000000" fill-rule="evenodd" stroke="#000000" stroke-width="1pt" stroke-opacity="0.991228" d="m307.679535,391.024231c13.459991,-2.359009 26.502991,-3.88501 39.962982,-5.411011c17.622986,-4.44101 26.503998,15.679993 21.647003,30.804993c-6.105011,13.460022 -14.707977,25.255005 -24.559998,36.632996c-7.631989,8.602997 -16.723999,9.995026 -25.394012,7.076019c-6.997986,-1.940002 -13.460968,-6.243011 -20.398987,-16.234009c-3.052002,-8.604004 -5.687988,-13.045013 -9.574005,-23.729004c-3.052002,-9.85199 1.695007,-24.600006 18.317017,-29.139984z"/>
     <path id="svg_19" fill="#000000" fill-rule="evenodd" stroke="#000000" stroke-width="1pt" stroke-opacity="0.991228" d="m479.761414,391.024231c-13.459991,-2.359009 -26.502991,-3.88501 -39.962982,-5.411011c-17.623016,-4.44101 -26.503998,15.679993 -21.647003,30.804993c6.105011,13.460022 14.708008,25.255005 24.559998,36.632996c7.631989,8.602997 16.723999,9.995026 25.393982,7.076019c6.998016,-1.940002 13.460999,-6.243011 20.399017,-16.234009c3.052002,-8.604004 5.687988,-13.045013 9.574005,-23.729004c3.052002,-9.85199 -1.695007,-24.600006 -18.317017,-29.139984z"/>
    </g>
    <g id="svg_20" font-size="12px" stroke="#000000" stroke-opacity="0.991228">
     <g id="svg_21" fill="none" stroke="#000000" stroke-opacity="0.991228">
      <g id="svg_22" font-size="12px" fill="none" stroke="#000000" stroke-opacity="0.991228">
       <path id="svg_23" fill="none" fill-rule="evenodd" stroke="#000000" stroke-width="6.25" stroke-opacity="0.991228" d="m307.434509,505.993225c5.690002,13.344055 7.450012,18.415039 11.553009,31.718018c3.496002,12.289001 4.781006,19.794006 6.94101,37.257996"/>
       <path id="svg_24" fill="none" fill-rule="evenodd" stroke="#000000" stroke-width="6.25" stroke-opacity="0.991228" d="m479.28891,505.257233c-5.689972,13.344025 -7.449982,18.415009 -11.552979,31.718048c-3.496002,12.28894 -4.781006,19.793945 -6.94101,37.257996"/>
       <g id="svg_25" fill="none" stroke="#000000" stroke-opacity="0.991228">
        <path id="svg_26" fill="none" fill-rule="evenodd" stroke="#000000" stroke-width="5" stroke-opacity="0.991228" d="m331.718536,537.195251c14.717987,9.026978 40.16098,10.419006 62.955994,10.008972c25.394104,-0.128967 47.133087,-1.962952 61.409088,-10.596985"/>
        <path id="svg_27" fill="none" fill-rule="evenodd" stroke="#000000" stroke-width="5" stroke-opacity="0.991228" d="m336.869537,560.745239c16.238007,10.204041 35.333984,13.708008 57.325989,12.877991c22.842102,-0.555969 40.351105,-2.477966 56.001099,-13.171997"/>
        <g id="svg_28" fill="none" stroke="#000000" stroke-opacity="0.991228">
         <path id="svg_29" fill="none" fill-rule="evenodd" stroke="#000000" stroke-width="6.25" stroke-opacity="0.991228" d="m325.09552,573.107239c17.367004,20.947998 41.608002,24.585022 69.173004,25.315002c29.519104,1.077026 59.166107,-10.64502 66.819092,-25.313965"/>
         <g id="svg_30" fill="none" stroke="#000000" stroke-opacity="0.991228">
          <path id="svg_31" fill="none" fill-rule="evenodd" stroke="#000000" stroke-width="5" stroke-opacity="0.991228" d="m336.646515,541.719238l-0.416016,41.212036"/>
          <path id="svg_32" fill="none" fill-rule="evenodd" stroke="#000000" stroke-width="5" stroke-opacity="0.991228" d="m350.175507,546.090271l-0.207977,44.125977"/>
          <path id="svg_33" fill="none" fill-rule="evenodd" stroke="#000000" stroke-width="5" stroke-opacity="0.991228" d="m365.161499,547.963257l-0.415955,46.208008"/>
          <path id="svg_34" fill="none" fill-rule="evenodd" stroke="#000000" stroke-width="5" stroke-opacity="0.991228" d="m378.691528,549.004272l-0.209015,46.83197"/>
          <path id="svg_35" fill="none" fill-rule="evenodd" stroke="#000000" stroke-width="5" stroke-opacity="0.991228" d="m393.885529,549.420227l0,46.832031"/>
          <path id="svg_36" fill="none" fill-rule="evenodd" stroke="#000000" stroke-width="5" stroke-opacity="0.991228" d="m408.455627,549.21228l0.208008,46.83197"/>
          <path id="svg_37" fill="none" fill-rule="evenodd" stroke="#000000" stroke-width="5" stroke-opacity="0.991228" d="m421.56842,547.963257l0.415894,46"/>
          <path id="svg_38" fill="none" fill-rule="evenodd" stroke="#000000" stroke-width="5" stroke-opacity="0.991228" d="m436.762604,545.466248l0.208008,44.125977"/>
          <path id="svg_39" fill="none" fill-rule="evenodd" stroke="#000000" stroke-width="5" stroke-opacity="0.991228" d="m450.499634,540.05426l0.416992,41.627991"/>
         </g>
        </g>
       </g>
      </g>
      <g id="svg_40" font-size="12px" fill="none" stroke="#000000" stroke-opacity="0.991228">
       <path id="svg_41" fill="none" fill-rule="evenodd" stroke="#000000" stroke-width="12.5" stroke-linecap="round" stroke-linejoin="round" stroke-opacity="0.991228" d="m266.700531,423.024231c-19.136017,-18.602997 -32.51001,-50.888 -34.365997,-85.752014c-2.015015,-38.419983 18.217987,-76.570007 48.536987,-98.319977c33.968994,-23.909012 90.766022,-30.522003 126.082092,-28.737c23.921021,0.016998 77.205994,12.419998 96.015015,26.427994c32.994019,23.989975 50.687988,58.039993 51.914001,96.849991c1.812988,38.983002 -14.606018,68.674988 -34.710999,87.205994"/>
       <path id="svg_42" fill="none" fill-rule="evenodd" stroke="#000000" stroke-width="12.5" stroke-linejoin="round" stroke-opacity="0.991228" d="m267.864502,313.730225c-7.751984,6.781982 -6.773987,16.97699 -5.377991,32.191986c1.10202,11.559998 8.478027,22.938995 8.866028,33.5c2.711975,22.285004 -3.876038,44.570007 -6.97702,62.786011c-2.131989,20.928009 3.876984,38.950012 11.628021,45.925995c7.750977,6.880005 17.755981,9.729004 28.267975,12.936005c9.550995,2.497986 14.503998,6.84201 21.728027,12.228058c8.605988,9.136963 10.658997,16.69397 10.464996,25.995972"/>
       <path id="svg_43" fill="none" fill-rule="evenodd" stroke="#000000" stroke-width="12.5" stroke-linejoin="round" stroke-opacity="0.991228" d="m520.263428,313.148224c7.751892,6.781982 6.773987,16.97699 5.377991,32.191986c-1.102112,11.559998 -8.477966,22.938995 -8.865967,33.5c-2.712036,22.285004 3.875977,44.570007 6.976868,62.786011c2.13208,20.928009 -3.876892,38.950012 -11.62793,45.925995c-7.750977,6.880005 -21.936981,10.575012 -28.267975,12.936005c-7.376984,2.580994 -14.919983,7.257996 -21.727997,12.644043c-8.190002,7.888 -10.658997,16.278015 -10.464996,25.580017"/>
       <path id="svg_44" fill="none" fill-rule="evenodd" stroke="#000000" stroke-width="12.5" stroke-opacity="0.991228" d="m290.023529,498.422211c6.937988,16.79007 14.291992,33.164032 14.985992,50.370026c-3.190979,13.876038 -2.220001,30.25 1.248993,43.294006c4.44101,17.900024 21.786011,39.130005 39.131989,46.207031c17.761017,6.451965 28.862,8.117981 48.70401,8.117981"/>
       <path id="svg_45" fill="none" fill-rule="evenodd" stroke="#000000" stroke-width="12.5" stroke-opacity="0.991228" d="m497.125427,498.422211c-6.938019,16.79007 -14.291992,33.164032 -14.985992,50.370026c3.190979,13.876038 2.220001,30.25 -1.249023,43.294006c-4.440979,17.900024 -21.993988,38.505981 -39.339996,45.583008c-17.345001,7.077026 -28.445007,8.742004 -48.287903,8.742004"/>
      </g>
     </g>
     <g id="svg_46" stroke="#000000" stroke-opacity="0.991228">
      <path id="svg_47" fill="none" fill-rule="evenodd" stroke="#000000" stroke-width="12.5" stroke-linejoin="round" stroke-opacity="0.991228" d="m486.51062,577.099243l68.271973,31.638c8.325012,3.468994 14.985046,2.359009 21.230042,0.416016c9.85199,-2.914001 17.622009,-1.247986 25.809021,2.08197c9.851868,4.994995 10.130859,12.072021 3.747864,19.149048c-5.827881,6.79895 -11.656921,10.267944 -18.73291,17.066956c-1.526978,10.962036 -0.555969,21.092041 -5.412964,31.222046c-6.105042,8.879944 -12.627014,7.353943 -22.89502,-2.082031c-10.406982,-8.049011 -6.661011,-16.929016 -21.647034,-29.973022l-63.27597,-32.885986l0,0"/>
      <path id="svg_48" fill="none" fill-rule="evenodd" stroke="#000000" stroke-width="12.5" stroke-linejoin="round" stroke-opacity="0.991228" d="m300.014526,576.683228c-22.757019,12.072021 -43.432007,23.311035 -69.519012,33.302002c-21.230988,5.27301 -20.39798,-7.769958 -46.207977,0.833008c-7.354004,5.828003 -7.215027,14.153015 -1.249023,20.397034c6.938995,6.799988 11.795013,11.10199 17.901001,17.06897c1.942993,8.603027 2.220001,15.957031 3.330017,26.225037c4.162994,12.627991 13.320984,11.93396 21.22998,5.828979c3.469025,-4.302002 7.770996,-8.187012 10.407013,-12.905029c3.608002,-6.243958 7.631989,-13.320984 12.488983,-19.148987l62.859009,-33.302979"/>
      <path id="svg_49" fill="none" fill-rule="evenodd" stroke="#000000" stroke-width="12.5" stroke-linecap="square" stroke-linejoin="round" stroke-opacity="0.991228" d="m496.501648,508.828217c25.809998,-12.765991 47.039978,-23.035004 70.35199,-34.552002c14.291992,-11.932983 10.684998,-23.450989 22.063965,-32.053986c11.239014,-10.684998 18.731934,-8.048004 22.894897,-2.080994c4.024048,10.128998 5.967041,20.258972 5.412048,30.804993c10.68396,9.85199 16.373962,15.540985 22.47998,24.561981c0.83197,11.378021 -9.158997,16.095001 -21.231018,16.234009c-15.818909,2.914032 -18.316895,-7.076996 -36.216919,0l-94.496979,44.542023l0,0"/>
      <path id="svg_50" fill="none" fill-rule="evenodd" stroke="#000000" stroke-width="12.5" stroke-linejoin="round" stroke-opacity="0.991228" d="m292.422516,509.816223c-26.099976,-12.756012 -47.783997,-22.274017 -73.589996,-36.501007c-14.031006,-11.186005 -9.516998,-23.843994 -26.492004,-34.145996c-7.457001,-3.727997 -12.852997,-5.395996 -18.837982,4.709991c-3.827026,9.028015 -3.53302,18.643005 -4.121002,27.964996c-6.673004,7.162018 -14.227997,11.382019 -19.722015,20.311005c-7.947998,12.756012 4.119995,16.975006 10.596008,18.545013c18.446991,4.611053 25.118988,-3.729004 42.092987,-0.295013c33.067017,15.405029 66.427002,31.39801 98.31601,47.097046"/>
     </g>
    </g>
   </g>
   <path d="m192.631577,180.526321c-0.526306,0 -12.154785,7.250122 -13.684204,2.105255c-3.230499,-10.867172 23.152237,-6.424789 22.105255,-6.315781c-10.164261,1.058319 -18.947067,4.228043 -18.421051,4.210526c7.907883,-0.263306 8.935776,-0.789368 17.894745,-1.052643c16.834839,-0.49472 20.565689,0.252838 24.736832,-0.526306c2.133163,-0.398468 1.611786,-0.000458 -11.052628,0.526306c-3.155167,0.131241 -16.820251,0.262756 -21.578949,0.526321c-6.831635,0.378372 -13.620361,-0.590164 -14.736847,0.526321c-0.372162,0.372162 2.098221,0.789429 16.842117,1.052628c3.683624,0.065765 27.883774,2.894638 37.368423,3.157898c7.891693,0.21904 7.368408,0 -1.052643,0c-35.263153,0 -38.406845,-0.6138 -47.89473,-0.526321c-14.248856,0.131378 -24.480927,2.012497 -24.210526,3.157898c0.362778,1.536713 14.724869,-0.52626 49.473679,-1.052628c1.578766,-0.023911 16.842102,0 26.315796,0c5.263153,0 3.761078,0.787811 -8.421051,1.578934c-3.676468,0.238754 -35.893204,-2.918961 -52.631592,-1.052628c-16.62355,1.853531 -17.368408,3.684219 -13.684204,3.684219c15.789474,0 51.052628,1.578949 53.684204,1.578949c11.578949,0 16.315796,0 14.736847,0c-3.684204,0 -16.311966,0.625992 -56.315781,2.105255c-15.26181,0.564362 -19.562103,1.817017 -18.421066,2.10527c16.337097,4.127136 43.160416,2.259476 47.894745,2.105255c24.2491,-0.789886 25.724167,-2.10347 32.105255,-2.631577c2.62262,-0.217056 3.154388,0.060684 2.631592,0c-9.130432,-1.059708 -10.15416,-1.733109 -10.526321,-2.10527c-0.372162,-0.372162 -0.348679,-1.742096 0.526321,-3.157883c0.782623,-1.266327 1.653793,-1.388977 4.736832,-0.526321c8.1884,2.291153 6.842102,3.157898 2.631577,3.157898c-3.157883,0 -3.684204,0 -4.210526,0c-4.210526,0 -34.375595,0.319962 -45.263153,3.157898c-4.831635,1.259399 -18.247009,1.627701 -30,6.315781c-2.186234,0.872055 -4.170456,1.254044 -3.684204,1.052628c1.37532,-0.569672 3.549484,-2.363312 10.526306,-3.157883c12.027527,-1.369797 16.845581,0.320145 31.578949,0c12.113846,-0.263229 27.359024,-1.31572 38.421051,-1.578949c4.209335,-0.100159 9.42305,0.788757 27.89473,1.578949c2.629181,0.112473 4.004883,0.108948 3.684235,0.526306c-4.977844,6.479218 -24.740982,3.319199 -27.894745,3.157898c-20.607056,-1.054001 -47.895035,-3.701721 -48.421051,-3.684204c-7.907883,0.263306 -16.738495,3.41803 -25.789474,4.210526c-0.524323,0.045914 -3.157898,0.526306 -4.210526,0.526306c-1.052643,0 -1.538895,0.201401 -1.052643,0c0.687668,-0.284836 1.85939,-3.312637 -1.578949,-4.736832c-1.45874,-0.604233 -2.926636,0.090485 -2.631577,0.526306c3.177979,4.693985 26.316544,4.67424 28.947372,4.736847c11.062027,0.263229 22.100342,0.789459 43.157898,1.052628c1.578827,0.01973 14.736832,-0.526306 25.789474,-0.526306c5.263153,0 5.789474,0 5.263153,0c-0.526321,0 -3.157898,0 -3.684204,0c-0.526321,0 -2.110672,-0.238495 -7.368423,0c-11.614761,0.526855 -16.807846,2.104767 -28.947372,2.631577c-22.084473,0.958389 -32.632156,-0.491287 -33.684204,-0.526321c-7.907883,-0.263306 -14.731171,-1.112915 -20,-1.578949c-6.835648,-0.604614 -11.599335,-0.779221 -13.157898,-0.526306c-1.642868,0.266602 -1.222519,-0.976822 14.210526,-3.157898c20.384399,-2.880829 22.597168,-1.857147 30,-2.631577c7.869308,-0.823227 13.684204,-0.526337 13.684204,-1.052643c0,-0.526306 -2.093445,0.073502 -8.421051,1.052643c-11.033524,1.707336 -11.602005,1.112198 -16.315781,1.578949c-2.670639,0.264435 -1.577789,0.465714 0,0.526306c6.857254,0.263351 18.90361,0.000916 18.947357,1.052628c0.263382,6.332199 -8.414688,1.139954 -29.473679,2.631592c-7.892487,0.559036 -9.930679,1.730835 -12.10527,2.631577c-1.537643,0.636917 -2.012497,1.834869 -3.157883,2.105255c-0.512238,0.120926 0,0.526321 11.052628,0.526321c3.157898,0 33.681427,-1.842102 71.052628,-2.10527c1.578903,-0.011124 6.850967,-0.732468 12.631577,-1.052628c4.758698,-0.263565 6.842117,-1.052628 10.000015,-1.052628c2.105255,0 -0.068054,-0.28595 -7.894745,-2.631577c-1.594299,-0.477798 -16.680756,-1.820435 -17.368423,-2.10527c-1.945007,-0.805649 -4.210526,-0.526321 -4.210526,0c0,0.526321 2.107697,0.03743 10.526321,-0.526306c7.370682,-0.493561 11.626907,0.945099 15.263153,2.631577c1.067642,0.495163 1.578934,0.526306 1.578934,1.052628c0,0.526321 -0.941376,4.010971 -4.21051,5.789474c-6.619522,3.601196 -14.7397,3.433197 -25.789474,3.684204c-11.587921,0.263229 -37.894745,0 -44.210526,0c-0.526321,0 -5.241318,0.262756 -10,0.526321c-3.678589,0.203735 -8.947372,0 -13.684219,0c-2.631577,0 -7.368408,-2.631577 -7.368408,-0.526321c0,1.578934 13.62883,0.7379 15.263153,1.052643c17.602219,3.389908 34.822342,3.145447 68.421051,0.526306c4.230453,-0.329773 10.164307,-0.2332 20,-2.631577c4.850937,-1.182877 5.262436,-1.551361 4.736832,-1.578949c-10.041412,-0.527039 -12.058365,-1.510529 -25.263153,-2.631577c-10.501678,-0.891556 -15.199905,0.788345 -30,1.578949c-2.102264,0.112305 -8.403152,0.262894 -14.210526,0.526321c-1.051544,0.047699 -2.477417,0.154144 -2.105255,0.526306c0.372162,0.372162 12.602951,-0.789246 45.263153,-1.578949c3.156982,-0.07634 11.994873,-1.047485 15.789474,-1.578949c1.56369,-0.219009 4.210526,0.000015 4.210526,-0.526306c0,-2.631577 -7.942215,1.081299 -10.526321,1.578949c-2.783157,0.53598 -2.761856,2.106827 2.631592,3.157883c16.603607,3.235672 17.991821,2.101303 13.684204,2.631592c-10.447449,1.286148 -11.052628,0 -17.89473,0.526306c-6.842117,0.526321 -13.144821,1.454712 -23.157898,1.578949c-18.953217,0.235153 -27.894745,-1.052628 -35.789474,-1.052628c-0.526321,0 -6.315796,0 -9.473694,0c-3.684204,0 -5.789474,0.526306 -7.368408,0.526306c-1.578949,0 -3.138855,0.587311 -4.736847,1.052643c-2.083527,0.60672 -3.44693,1.029037 -5.263153,1.578949c-0.503738,0.152527 0,0 6.315781,0c1.052628,0 11.578949,-1.052643 19.473694,-1.052643c3.684204,0 8.913101,0.525833 21.052628,1.052643c3.154922,0.136917 10.52182,-0.263138 33.684204,-0.526321c0.526291,-0.005981 3.684219,-0.526321 5.263168,-0.526321l1.578934,0" id="svg_52" stroke-linecap="null" stroke-linejoin="null" stroke-dasharray="null" stroke-width="6" stroke="#ff0000" fill="none"/>
   <path d="m254.736847,218.947372c0,0 -2.760941,-1.161118 -12.631577,0.526306c-9.192978,1.571579 -17.371353,5.207718 -17.894745,5.263168c-7.493759,0.7939 -14.736847,2.631577 -21.052628,2.631577c-1.052628,0 -8.421051,0.526306 -12.631577,0.526306c-3.157898,0 -4.736847,0 -5.263168,0c-2.631577,0 -4.639771,-0.522339 -8.947357,-1.052628c-2.089493,-0.257233 -4.117767,-0.25592 -5.263168,-0.526306c-0.512222,-0.120911 -1.066711,0.120926 -1.578949,0c-1.145401,-0.270401 -3.093964,-1.838669 -4.736832,-2.10527c-1.039047,-0.16861 -2.10527,-0.526321 -3.157898,-0.526321c-0.526321,0 -1.066711,0.120926 -1.578949,0c-1.145386,-0.270386 -1.578751,-0.500854 0,-0.526306c16.322159,-0.263199 30,-0.526321 33.157898,-0.526321c4.210526,0 7.214264,-0.154144 6.842102,-0.526306c-0.372162,-0.372162 -10.526321,-0.526321 -17.368423,-0.526321c-0.526306,0 -1.052628,0 1.052628,0c17.894745,0 34.210526,1.052628 35.789474,1.052628c0.526321,0 1.723495,0.203888 1.052643,0.526321c-8.591187,4.129211 -17.709213,3.143417 -20,3.684204c-0.512238,0.120926 0.111511,1.87323 15.789474,0c17.74527,-2.120239 23.70459,-6.062866 25.263153,-6.315781c1.642868,-0.266602 2.631577,-1.052643 4.210526,-1.052643c2.631577,0 5.789474,-0.526306 6.315796,-0.526306c0.526306,0 2.259415,-0.898483 2.631577,-0.526321c0.372162,0.372162 -5.806488,0.730667 -15.263168,5.263153c-1.711258,0.82019 -9.613388,2.678146 -15.789474,4.736847c-10.293472,3.431152 -14.289124,6.565399 -14.736832,6.842102c-1.001129,0.618729 0.517151,0.507813 2.631577,-0.526306c24.108047,-11.790817 30.551926,-14.639282 34.736847,-15.789474c5.298416,-1.456223 5.990891,-1.538879 5.789474,-1.052643c-1.993881,4.81366 -3.949066,4.095398 -7.894745,6.315796c-3.493179,1.965744 -9.106674,3.883514 -13.684204,6.315796c-4.384705,2.329819 -9.009872,6.016449 -14.736847,7.368408c-0.512238,0.120926 -1.069214,0.491776 0,0c9.857605,-4.53389 13.209625,-5.139954 22.105255,-8.947357c4.765472,-2.039658 6.882172,-3.482819 7.368423,-3.684219c0.687668,-0.284836 1.495972,-1.294632 5.789474,-2.631577c2.07193,-0.645172 1.656464,-0.435211 1.052643,0c-2.864197,2.064407 -7.614563,4.619034 -10.526321,6.315796c-4.89769,2.854034 -7.907776,3.125885 -10.526321,4.210526c-3.703186,1.533905 -6.946136,3.454346 -9.473679,4.736832c-4.427872,2.246719 -4.728058,2.797928 -3.157898,2.631592c14.987518,-1.587784 15.323669,-2.915253 20,-4.210526c1.603973,-0.444275 1.619019,-0.851227 2.10527,-1.052643c0.687653,-0.284836 1.529648,-1.633377 2.105255,-2.105255c1.467545,-1.203094 2.631577,-2.10527 3.157898,-2.631577c0.526321,-0.526321 1.052628,-1.052628 1.578949,-1.578949c0.526321,-0.526321 0.975128,-1.143738 1.578949,-1.578949c0.954742,-0.688126 2.012497,-1.308548 3.157898,-1.578949c0.512222,-0.120926 -0.111404,-0.150467 -1.578949,1.052628c-0.575623,0.471893 -2.012863,0.57782 -2.631592,1.578949c-0.276703,0.447708 -0.526306,0.526321 -1.052628,1.052628c-1.052643,1.052628 -2.631561,1.578964 -3.684204,2.631592c-0.526321,0.526306 -1.417145,1.150513 -2.10527,2.105255c-0.435211,0.603821 -1.578949,1.052628 -2.105255,1.578949c-0.526321,0.526321 -1.863785,0.364975 -1.578949,1.052628c0.201416,0.486237 0.919342,-0.19545 3.157898,-1.578949c2.002213,-1.237442 4.118118,-1.630463 4.736832,-2.631577c0.276688,-0.447708 1.087372,-0.988235 2.10527,-1.578949c1.641296,-0.952484 2.091171,-1.699875 1.578949,-1.578949c-1.145401,0.270401 -2.683105,3.065506 -3.684219,3.684219c-0.447708,0.276688 -1.052628,1.052628 -2.105255,2.105255c-1.052628,1.052643 -2.486313,3.801437 -4.210526,5.789474c-0.975372,1.124619 -1.294113,1.417603 -1.578949,2.10527c-0.201401,0.486252 0.201416,1.092697 0,1.578949c-0.284851,0.687653 -0.324905,1.092697 -0.526321,1.578949c-0.284836,0.687653 -1.052628,1.052628 -1.052628,1.578934c0,0.526321 0,1.052643 0,1.578949c0,0.526321 -0.526321,0.526321 -0.526321,1.052643c0,0.526306 -0.372162,1.206787 0,1.578949c0.372162,0.372162 1.206787,0.372162 1.578949,0c0.372162,-0.372162 1.337463,-0.891296 1.052628,-1.578949c-0.201416,-0.486237 -1.05925,0.186554 -3.684204,0c-3.71225,-0.263824 -7.89473,-0.526321 -13.157898,-0.526321c-2.105255,0 -3.684204,0 -6.842102,0c-4.210526,0 -7.842346,-0.525162 -15.789474,-1.052628c-4.72644,-0.313705 -7.866684,-0.788818 -11.578949,-1.052643c-2.09996,-0.149246 -5.263153,0 -7.89473,0c-2.631577,0 -5.263168,0 -6.315796,0c-0.526306,0 0.527039,0.498734 1.052628,0.526321c10.041428,0.527039 12.945724,2.122635 10.526321,3.157898c-2.943314,1.259445 -5.263153,1.052628 -5.789474,1.052628c-0.526321,0 -1.052628,0 -3.157898,0c-0.526306,0 -0.442001,-0.533096 -0.526306,-1.052628c-0.266602,-1.642868 0.529358,-2.203384 2.105255,-2.10527c25.410568,1.582001 33.684219,4.736862 33.684219,3.684219c0,-0.526321 -9.00174,0.674454 -13.157898,0c-1.642868,-0.266602 -0.01532,-1.237473 11.578949,-2.10527c8.93782,-0.668976 12.379074,-0.200745 16.842102,-2.105255c1.745392,-0.744812 3.32106,-1.756561 4.736847,-2.631577c0.633148,-0.391312 1.052628,-1.052643 0.526306,-1.052643c-0.526306,0 -9.984848,-1.841904 -16.842102,-2.105255c-5.259277,-0.201981 -9.473679,0 -13.157898,0c-4.210526,0 -8.393005,-0.788818 -12.105255,-1.052628c-2.099976,-0.149231 -5.224106,-0.788193 -7.894745,-1.052643c-2.095016,-0.207443 -4.210526,0 -5.263153,0c-1.578949,0 -2.510651,0.512222 -2.631577,0c-0.270386,-1.145386 2.587662,-1.361588 12.631577,-2.631577c11.014938,-1.392776 23.684204,-1.578949 24.210526,-1.578949c3.157898,0 7.368423,0.000015 7.368423,-0.526306c0,-0.526321 -4.93396,-1.692902 -12.10527,0c-1.145386,0.270386 -7.368423,0.526306 -13.157883,0.526306c-2.631592,0 -4.736847,0 -5.263168,0c-1.578949,0 -2.631577,0 -4.736832,0c-2.10527,0 -5.263168,-0.526306 -7.894745,-1.578949c-2.631577,-1.052628 -4.210526,-1.578949 -5.263153,-2.105255c-1.052643,-0.526321 -1.326401,-0.696671 -2.10527,-1.578949c-1.255875,-1.422623 -2.105255,-1.578934 -4.210526,-2.631577c-1.052628,-0.526321 -2.539169,-0.051514 -3.157898,-1.052643c-0.276703,-0.447708 4.738159,-1.105057 5.789474,-1.052628c5.282852,0.263489 9.604095,1.776382 15.263168,4.210526c3.243317,1.39505 13.691086,1.451126 13.157883,4.736847c-0.16861,1.039032 -3.21431,-0.132553 -2.105255,-0.526321c4.572739,-1.62352 20.070389,-3.605927 22.631577,-4.210526c1.145386,-0.270386 1.578949,-0.526306 0.526321,-0.526306c-4.210526,0 -7.90834,0.357697 -8.947372,0.526306c-3.285736,0.533203 -3.532532,-0.682388 6.315796,1.052643c6.066925,1.068832 6.888123,2.523117 9.473679,3.684204c4.294373,1.928452 4.736847,2.10527 6.315781,3.157898c1.578949,1.052643 3.199188,1.994644 4.736847,2.631577c1.087296,0.450378 1.578949,0.526321 2.10527,0.526321c0.526306,0 0,0 -0.526321,0c-4.736847,0 -14.122238,-2.892548 -24.736847,-3.684219c-0.524841,-0.039139 -2.105255,0 -3.157883,0c-1.578949,0 -4.45401,-1.184128 -5.789474,0.526321c-0.323898,0.414841 0,1.052628 0,1.578949c0,1.052628 -0.372162,2.259415 0,2.631577c0.372162,0.372162 4.745987,0.231964 9.473679,0.526306c4.235092,0.263672 6.315796,0.526321 6.842102,0.526321c2.10527,0 3.885635,0.04007 3.684219,0.526321c-0.284851,0.687653 -4.720428,1.841873 -11.052643,2.105255c-4.206894,0.174988 -6.315781,0 -8.421051,0c-1.578949,0 -2.105255,0 -2.631577,0c-0.526321,0 -1.052628,0 -5.789474,-1.578949c-4.736847,-1.578949 -6.276733,-1.84082 -8.947372,-2.105255c-2.095016,-0.207443 -3.684204,0 -7.368408,0c-2.10527,0 -3.466217,0.526306 -4.210526,0.526306c-0.744324,0 -1.029037,-1.341644 -1.578949,-3.157883c-0.305038,-1.007477 -0.954041,-1.687805 -2.10527,-2.631592c-1.467529,-1.203094 -2.105255,-1.578934 -3.157898,-2.631577c-0.526306,-0.526306 -2.203156,-2.469757 -3.157883,-3.157883c-0.603836,-0.435211 -1.733109,-1.206787 -2.10527,-1.578949c-0.372162,-0.372162 -0.58342,-0.709259 4.210526,-2.10527c2.083527,-0.60672 14.210526,-0.526321 16.842102,-0.526321c1.578949,0 4.403976,-0.998611 4.736847,0c0.832184,2.496536 -6.315796,3.157913 -9.473679,5.263168c-1.578949,1.052628 -1.856918,1.114899 -2.10527,1.578949c-0.895432,1.673111 -1.000687,1.280624 -0.526321,1.052628c3.03746,-1.459869 4.967377,-6.642319 8.421066,-9.473679c1.467529,-1.203094 3.157898,-1.578949 2.631577,-2.10527c-0.526321,-0.526321 -1.578949,1.578949 -3.684219,4.736847l-1.052628,3.684204l0,3.157898l0,1.578949" id="svg_54" stroke-linecap="null" stroke-linejoin="null" stroke-dasharray="null" stroke-width="6" stroke="#ff0000" fill="none"/>
   <path d="m218.421051,303.684204c-0.526321,0 -2.1147,-0.05072 -7.89473,1.052643c-5.272202,1.006439 -8.381989,1.314484 -11.052643,1.578949c-2.618774,0.259308 -4.736832,0 -7.368408,0c-3.157898,0 -2.892548,-0.722443 7.89473,-4.210541c2.064804,-0.667664 6.763992,-1.050049 12.10527,-1.578949c4.190033,-0.414886 7.465927,-0.19339 11.578934,-1.578949c3.798553,-1.279633 5.138916,-0.804138 6.315796,-3.157898c0.235367,-0.470734 -0.526321,-0.526306 -2.631577,-0.526306c-1.578949,0 -2.10527,0 -2.631577,0c-0.526321,0 -0.526321,-0.526306 0,-1.052612c2.105286,-2.105255 1.671722,-1.849365 0.526306,-1.578949c-1.536713,0.362762 -3.785889,0.561829 -10,2.105255c-1.61528,0.401184 -3.157883,1.052612 -4.210526,1.052612c-1.052628,0 -3.684204,0 -7.368423,0c-2.631577,0 -4.736832,0 -6.315781,0c-2.10527,0 -3.684219,0 -5.789474,0c-0.526321,0 -2.10527,-0.526306 -3.684219,-0.526306c-1.578934,0 -2.143036,0.162506 -4.736832,-0.526306c-1.608597,-0.427185 -2.631577,-1.052643 -3.684219,-1.052643c-0.526306,0 -0.891281,-0.241486 -1.578949,-0.526306c-0.486252,-0.201416 0.069382,-0.294708 7.368423,1.578949c5.322342,1.366241 5.783569,1.615692 8.947372,2.105255c3.677841,0.569092 6.73172,1.573822 10.526321,2.105255c0.521225,0.072998 -0.571716,-0.493256 -8.947372,0.526337c-5.841263,0.71106 -10.270401,2.012512 -10,3.157898c0.120926,0.512238 2.105255,-1.578949 2.631577,-1.578949c0.526321,0 7.444,0.201324 12.631577,1.578949c3.217194,0.85437 5.802734,1.51651 8.421051,2.105255c2.117188,0.476074 8.412369,-4.597351 12.10527,0.526306c0.97316,1.350189 -4.123947,3.154724 -8.947372,3.684204c-0.523163,0.057434 -4.18248,0.788818 -7.89473,1.052643c-4.72493,0.335785 -7.894745,0 -9.473694,0c-2.105255,0 -2.642639,0.034424 -1.052628,0.526306c7.320953,2.264832 8.372513,2.892761 10.526321,3.157898c1.044739,0.128601 4.171463,0.261871 6.842102,0.526337c1.047501,0.103729 2.631577,0 3.157898,0c1.052628,0 0.475464,-0.245392 -2.631577,0.526306c-1.61528,0.401184 -4.171494,1.84082 -6.842117,2.105255c-1.571259,0.155579 -3.684204,0.526306 -4.736832,0.526306c-1.052643,0 -2.10527,-0.526306 -2.10527,0c0,0.526306 2.10527,0 2.631577,0c1.052643,0 1.578949,0 2.10527,0c0.526306,0 1.486191,-0.25592 2.631577,-0.526306c0.512238,-0.120911 1.578949,0 2.105255,0c0.526321,0 1.052643,0 2.10527,0c0.526321,0 -0.00679,0.441986 -0.526321,0.526306c-1.642868,0.266602 -2.659729,0.810791 -3.684204,1.052643c-1.145386,0.270386 -1.578949,0.526306 -1.052628,0.526306c1.052628,0 2.631577,0 3.157883,0l1.052643,0l0.526306,0" id="svg_55" stroke-linecap="null" stroke-linejoin="null" stroke-dasharray="null" stroke-width="6" stroke="#ff0000" fill="none"/>
   <path d="m263.157898,235.263153c-0.526306,0.526321 -7.06012,11.360947 -6.315796,12.10527c0.372162,0.372162 1.700928,-2.0672 2.631592,-5.263153c0.60672,-2.083511 0.902161,-3.795624 2.105255,-5.263168c0.471893,-0.575607 0.526306,-1.052628 1.052643,-1.578949c0.526306,-0.526306 1.206787,-1.733078 1.578949,-2.105255c0.372162,-0.372162 0.708893,-1.019943 0.526306,-0.526321c-1.683533,4.550995 -5.892517,7.837753 -7.894745,11.578949c-0.555298,1.037613 -0.321381,2.715408 -1.052628,4.210526c-0.83374,1.704697 -1.052628,2.10527 -1.578949,2.631577l0,0.526321" id="svg_56" stroke-linecap="null" stroke-linejoin="null" stroke-dasharray="null" stroke-width="6" stroke="#ff0000" fill="none"/>
   <path d="m271.578949,244.736847c0,0 -2.366425,3.635666 -2.631592,5.789474c-0.128632,1.044739 -0.163544,2.673813 -0.526306,4.210526c-0.270386,1.145386 -0.526306,2.105255 -1.052643,2.631561l0,0.526337l0,0.526306l-0.526306,0.526306" id="svg_58" stroke-linecap="null" stroke-linejoin="null" stroke-dasharray="null" stroke-width="6" stroke="#ff0000" fill="none"/>
   <path d="m145.789474,233.157898c0,0.526306 -0.241852,2.659729 0,3.684204c0.270401,1.145401 1.308548,2.012497 1.578949,3.157898c0.120926,0.512238 0.767792,0.891281 1.052628,1.578949c0.201416,0.486252 -0.110596,1.093903 0.526321,2.631577c0.900742,2.174591 1.820419,3.522858 2.105255,4.210526c0.604233,1.458755 0.526321,2.10527 0.526321,3.157898l0.526321,0l0,0.526321" id="svg_59" stroke-linecap="null" stroke-linejoin="null" stroke-dasharray="null" stroke-width="6" stroke="#ff0000" fill="none"/>
   <path d="m268.947357,255.789474c0,0 0.351593,0.647049 -0.526306,2.631577c-0.7677,1.735443 -2.105255,2.631592 -2.105255,3.157898l-0.526337,0.526306" id="svg_60" stroke-linecap="null" stroke-linejoin="null" stroke-dasharray="null" stroke-width="6" stroke="#ff0000" fill="none"/>
   <path d="m225.789474,202.10527" id="svg_61" stroke-linecap="null" stroke-linejoin="null" stroke-dasharray="null" stroke-width="6" stroke="#ff0000" fill="none"/>
   <path d="m241.578949,232.631577c0,0 0,0.526321 0,2.10527c0,4.210526 -0.526321,7.368423 -0.526321,8.421051c0,0.526306 0,1.052628 -0.526306,1.578949l-0.526321,0.526306l0,0.526321l-0.526321,0" id="svg_62" stroke-linecap="null" stroke-linejoin="null" stroke-dasharray="null" stroke-width="6" stroke="#ff0000" fill="none"/>
   <path d="m265.263153,236.315796c0,0 -1.052612,1.052628 -1.578949,2.631577c-1.052643,3.157883 -1.578949,4.210526 -1.578949,5.263153l-0.526306,0" id="svg_63" stroke-linecap="null" stroke-linejoin="null" stroke-dasharray="null" stroke-width="6" stroke="#ffffff" fill="none"/>
   <path d="m179.473679,267.368408c0.526321,0 1.582001,-0.098114 3.157898,0c4.235092,0.263672 9.473694,0.526337 10,0.526337c0.526321,0 1.060318,-0.155579 2.631577,0c2.670624,0.264435 2.733871,1.288605 0.526321,2.105255c-4.070526,1.505798 -8.421051,2.105255 -12.10527,2.105255c-0.526306,0 -2.056717,0.261169 -4.210526,0.526337c-1.044739,0.128632 -2.259415,0.372162 -2.631577,0c-0.372177,-0.372162 -0.722122,-0.202667 -2.631577,-1.578949c-0.603836,-0.435211 -1.052628,-0.526337 -1.052628,-1.052643c0,-0.526306 0.527847,-0.624847 3.684204,-0.526306c8.43338,0.263275 13.157898,1.578949 17.368423,1.578949c3.684204,0 7.797684,0.522339 12.10527,1.052612c4.178986,0.514435 6.862488,-0.25293 8.421051,0c1.642868,0.266602 4.223328,0.267029 6.842102,0.526337c2.670624,0.264435 6.315781,1.052612 8.421051,1.052612c2.10527,0 3.649551,-0.602234 4.736847,-1.052612c1.537674,-0.636932 1.943909,-0.767822 2.631577,-1.052643c0.486252,-0.201416 0.676773,0.637726 -0.526321,2.105255c-0.943787,1.151245 -1.828568,1.657562 -2.105255,2.105255c-0.618729,1.001129 -1.820419,0.891296 -2.10527,1.578949c-0.201431,0.486267 -0.526306,1.052643 -1.052628,1.578949c-0.526337,0.526337 -1.052628,1.578949 -0.526321,1.578949c0.526306,0 1.273102,-0.746765 2.10527,-1.578949c0.832153,-0.832184 1.294098,-1.417603 1.578949,-2.105255c0.201416,-0.486237 0.727722,-0.486237 0.526306,0c-0.854523,2.062988 -3.684204,3.684204 -4.210526,4.210541c-1.052612,1.052612 -1.578949,1.578949 -2.105255,2.105255c-0.526321,0.526306 -0.959869,0.782227 -2.10527,1.052643c-0.512222,0.120911 -1.08078,0.284454 -2.105255,0.526306c-2.290787,0.540771 -4.146606,1.312347 -5.789474,1.578949c-1.558563,0.25293 -3.698303,0.405396 -4.210526,0.526306c-1.145401,0.270386 -2.125656,0.273376 -3.684219,0.526306c-1.642868,0.266602 -3.157898,0.526337 -5.263153,0.526337c-2.10527,0 -3.684204,0 -5.789474,0c-1.578949,0 -3.178284,-0.273407 -4.736847,-0.526337c-1.642868,-0.266602 -3.70459,-0.273376 -5.263153,-0.526306c-1.642868,-0.266602 -3.065125,-0.782227 -4.210526,-1.052643c-1.02446,-0.241852 -2.070602,-0.075958 -3.157898,-0.526306c-1.537674,-0.636902 -2.119339,-0.405396 -2.631577,-0.526306c-1.145386,-0.270386 -2.203171,-1.417114 -3.157898,-2.105255c-1.207657,-0.870422 -1.670044,-1.501434 -2.105255,-2.105286c-0.68811,-0.954712 -1.052643,-2.105255 -2.10527,-3.157898c-0.526306,-0.526306 -0.680466,-0.68045 -1.052628,-1.052612c-1.116486,-1.116486 -0.803009,-1.657562 -0.526321,-2.105255c0.618729,-1.001129 2.144119,-1.084015 13.684219,0c3.705292,0.348053 6.309875,1.089355 9.473679,1.578918c3.677841,0.569122 5.053787,0.632477 4.736847,1.052643c-2.307404,3.05899 -9.473694,1.578949 -14.210526,1.578949c-3.157898,0 -4.736847,0 -6.842117,0c-1.578934,0 -2.44545,-0.124725 -2.105255,-0.526306c2.069336,-2.44278 11.013672,0.295349 17.89473,1.052612c7.864792,0.865509 11.590775,0.333405 13.157898,0.526337c2.153809,0.265137 1.573395,0.994781 -4.210526,1.578949c-4.741867,0.478943 -10.557739,1.626892 -15.789474,1.052612c-4.82341,-0.52948 -6.315781,-1.052612 -5.263153,-1.052612c6.842102,0 15.263153,0.526306 23.157898,0.526306c5.263153,0 7.368423,0 9.473679,0c2.10527,0 4.499557,-0.502716 6.315796,-1.052643c0.503723,-0.152527 1.08078,0.241852 2.105255,0c1.145386,-0.270386 2.569214,-0.626465 4.210526,-1.578949c1.017883,-0.590698 2.105255,-0.308289 2.10527,-1.052612c0.000015,-0.744354 -5.24527,-1.315521 -11.052643,-1.578949c-3.68042,-0.166931 -7.368408,0 -11.578934,0c-2.631592,0 -4.736847,0 -6.842117,0c-2.631577,0 -3.992508,0.744324 -4.736832,0c-0.372177,-0.372162 4.214645,-2.608429 13.157883,-4.210541c5.792175,-1.037628 11.052643,-1.578949 15.789474,-1.578949c3.684219,0 5.21463,-0.261169 7.368423,-0.526306c0.522385,-0.064301 1.132767,0.402832 2.10527,0c0.687653,-0.284821 1.360931,0.218018 2.105255,-0.526306c0.372177,-0.372162 0.526321,-0.526337 1.052643,-0.526337l0.526306,0l1.052628,0l0.526321,0" id="svg_65" stroke-linecap="null" stroke-linejoin="null" stroke-dasharray="null" stroke-width="6" stroke="#ffffff" fill="none"/>
   <path d="m208.947372,283.157898c0,0 -0.508423,0.262878 -6.315796,0.526306c-2.628876,0.119232 -3.591446,0.782257 -4.736847,1.052643c-0.512222,0.120911 1.052643,0 8.421066,0l3.157883,0" id="svg_66" stroke-linecap="null" stroke-linejoin="null" stroke-dasharray="null" stroke-width="6" stroke="#ffffff" fill="none"/>
   <polyline id="svg_67" points="192.10526315789468,347.8947368421052 192.10526315789468,348.4210526315789 " stroke-linecap="round" stroke-linejoin="null" stroke-dasharray="null" stroke-width="6" stroke="#ffffff" fill="none"/>
   <path d="m218.421051,268.947357c-0.526321,0 -21.05217,0.548218 -20.526321,0.526337c6.332214,-0.263397 11.052643,-0.526337 13.157898,-0.526337l2.631577,0l0.526321,0" id="svg_68" stroke-linecap="null" stroke-linejoin="null" stroke-dasharray="null" stroke-width="6" stroke="#ffffff" fill="none"/>
   <path d="m162.10527,260c0,0.526306 0.197113,8.324402 2.631577,12.105255c0.402954,0.625824 1.052628,0.526337 1.052628,1.052643c0,0.526306 0.526321,1.052643 0.526321,2.105255c0,0.526306 0.249603,1.131256 0.526306,1.578949c0.618713,1.001099 0.975128,1.143738 1.578949,1.578949c0.954727,0.68811 2.10527,0.526306 2.631577,0.526306c0.526321,0 1.052643,0.526337 2.10527,1.052643c1.052628,0.526306 1.578949,1.052643 2.631577,1.052643l0.526321,1.052612l1.052628,0l0.526306,0.526337" id="svg_107" stroke-linecap="null" stroke-linejoin="null" stroke-dasharray="null" stroke-width="6" stroke="#ffffff" fill="none"/>
   <path d="m254.210526,240c0,0 -1.206787,4.364685 -1.578949,4.736847c-1.488647,1.488647 -0.526306,4.210526 -1.578949,6.315781l0,0.526321" id="svg_108" stroke-linecap="null" stroke-linejoin="null" stroke-dasharray="null" stroke-width="6" stroke="#ffffff" fill="none"/>
   <path d="m247.89473,261.578949c0,0.526306 -0.084427,1.559631 -0.526306,3.684204c-0.651901,3.134369 -0.680466,3.838379 -1.052628,4.210541c-0.372162,0.372162 -1.107071,2.055969 -1.578949,2.631561c-1.20311,1.467529 -2.631577,3.157898 -3.684219,4.210541c-1.578949,1.578949 -3.522858,3.399384 -4.210526,3.684204c-0.486252,0.201416 -0.68045,0.680481 -1.052628,1.052643c-0.372162,0.372162 -0.891281,0.241486 -1.578949,0.526306c-0.486252,0.201416 -1.092697,0.851227 -1.578949,1.052643c-0.687653,0.284821 -1.052628,1.052612 -1.578949,1.052612l0,0.526337" id="svg_109" stroke-linecap="null" stroke-linejoin="null" stroke-dasharray="null" stroke-width="6" stroke="#ffffff" fill="none"/>
   <path d="m178.947372,283.684204c0,0 -0.526321,0 -3.684219,0c-0.526306,0 -1.052628,0 -1.578949,-0.526306c-0.526306,-0.526306 -1.417587,-1.294128 -2.105255,-1.578949c-0.486252,-0.201416 -1.36528,-1.322632 -2.631577,-2.105255c-1.415787,-0.875 -2.10527,-1.052643 -2.631577,-1.578949c-0.526321,-0.526337 -1.052643,-1.578949 -2.10527,-2.631592l-0.526321,-1.578949l-0.526306,0" id="svg_110" stroke-linecap="null" stroke-linejoin="null" stroke-dasharray="null" stroke-width="6" stroke="#ffffff" fill="none"/>
   <path d="m247.89473,274.210541c0,0 -0.675858,-0.14151 -3.157883,2.631561c-2.247574,2.511139 -5.789459,4.210571 -10,6.315796c-1.052643,0.526306 -3.157898,1.052643 -5.263168,1.578949c-2.105255,0.526306 -3.712692,0.754028 -5.263153,1.052612c-2.783157,0.53598 -4.146606,1.312347 -5.789474,1.578949c-1.558563,0.25293 -2.118851,0.357727 -3.157898,0.526337c-1.642868,0.266602 -2.631577,0.526306 -3.157883,0.526306c-1.578949,0 -2.470245,0.241486 -3.157898,0.526306c-0.486252,0.201416 -1.052643,0 -1.578949,0c-0.526321,0 -1.052628,0 -1.578949,0l-0.526321,0l0,0.526337" id="svg_111" stroke-linecap="null" stroke-linejoin="null" stroke-dasharray="null" stroke-width="6" stroke="#ffffff" fill="#ff0000"/>
   <path d="m243.684204,271.052643" id="svg_113" stroke-linecap="null" stroke-linejoin="null" stroke-dasharray="null" stroke-width="6" stroke="#ffffff" fill="none"/>
   <path d="m209.473679,282.105255c0,0 19.473694,-2.105255 23.157898,-2.631561c3.684219,-0.526337 4.210526,-0.526337 5.263153,-1.052643l0.526321,0" id="svg_114" stroke-linecap="null" stroke-linejoin="null" stroke-dasharray="null" stroke-width="6" stroke="#ffffff" fill="none"/>
   <path d="m125.263161,361.578949c0.526314,0 2.114342,-0.086731 22.631569,2.105255c9.478058,1.012604 14.736847,1.052643 16.315796,1.052643l3.157898,0l4.210526,0.526306l1.052628,0" id="svg_115" stroke-linecap="null" stroke-linejoin="null" stroke-dasharray="null" stroke-width="6" stroke="#ffffff" fill="none"/>
   <path d="m263.157898,235.789474c0,0 0.471893,2.055954 0,2.631577c-1.203094,1.467545 -1.555359,1.867996 -2.105255,3.684219c-0.305023,1.007462 -0.526337,1.578934 -1.052643,2.105255l0,0.526321" id="svg_116" stroke-linecap="null" stroke-linejoin="null" stroke-dasharray="null" stroke-width="6" stroke="#ff0000" fill="none"/>
   <path d="m245.263153,292.105255c0,0 0,0.526337 -0.526306,1.052643l-3.157898,3.157898l-2.10527,1.578949" id="svg_117" stroke-linecap="null" stroke-linejoin="null" stroke-dasharray="null" stroke-width="6" stroke="#ff0000" fill="none"/>
   <path d="m263.684204,234.210526" id="svg_118" stroke-linecap="null" stroke-linejoin="null" stroke-dasharray="null" stroke-width="6" stroke="#ff0000" fill="none"/>
   <polyline id="svg_119" points="184.21052631578942,307.8947368421052 184.21052631578942,307.8947368421052 195.26315789473682,309.99999999999994 " stroke-linecap="round" stroke-linejoin="null" stroke-dasharray="null" stroke-width="6" stroke="#ff0000" fill="none"/>
   <path d="m262.105255,238.421051c0,0 0.526337,-2.105255 1.052643,-4.210526l0.526306,-1.052628l0,-0.526321" id="svg_120" stroke-linecap="null" stroke-linejoin="null" stroke-dasharray="null" stroke-width="6" stroke="#ff0000" fill="none"/>
   <polyline id="svg_121" points="182.63157894736838,308.4210526315789 182.63157894736838,308.4210526315789 " stroke-linecap="round" stroke-linejoin="null" stroke-dasharray="null" stroke-width="6" stroke="#ff0000" fill="none"/>
  </g>
  <g id="svg_69" transform="matrix(0.651999 0 0 0.651999 -51.2309 -96.8247)">
   <g id="svg_70" font-size="12px" fill="#000000" stroke="#000000" stroke-opacity="0.991228">
    <path id="svg_71" fill="#000000" fill-rule="evenodd" stroke="#000000" stroke-width="1pt" stroke-opacity="0.991228" d="m389.290192,447.981506c-9.695984,7.372986 -11.852997,9.848999 -17.210999,18.007996c-1.938965,3.148987 -5.559967,10.507996 -6.549988,15.445007c-0.989014,4.936005 -1.730011,12.097992 -1.72699,15.890991c0.011993,12.852997 4.102997,20.915894 8.571014,20.634888c3.991974,-0.458008 9.071991,-4.620972 16.769989,-14.075928"/>
    <path id="svg_72" fill="#000000" fill-rule="evenodd" stroke="#000000" stroke-width="1pt" stroke-linejoin="bevel" stroke-opacity="0.991228" d="m396.272217,448.189514c9.696075,7.372986 11.853088,9.848999 17.21109,18.007996c1.938995,3.148987 5.559998,10.507996 6.550018,15.445007c0.988983,4.935974 1.72998,12.097992 1.72699,15.890961c-0.011993,12.853027 -4.102997,20.915924 -8.571014,20.634918c-3.991974,-0.458008 -9.072083,-4.620972 -16.770081,-14.075928"/>
    <path id="svg_73" fill="#000000" fill-rule="evenodd" stroke="#000000" stroke-width="1pt" stroke-opacity="0.991228" d="m306.872223,391.831512c13.459991,-2.359009 26.502991,-3.88501 39.962982,-5.411011c17.623016,-4.44101 26.503998,15.679993 21.647003,30.804993c-6.105011,13.460022 -14.708008,25.255005 -24.559998,36.632996c-7.632019,8.602997 -16.723999,9.995026 -25.393982,7.076019c-6.998016,-1.940002 -13.460999,-6.243011 -20.399017,-16.234009c-3.052002,-8.604004 -5.687988,-13.045013 -9.574005,-23.729004c-3.052002,-9.85199 1.695007,-24.600006 18.317017,-29.139984z"/>
    <path id="svg_74" fill="#000000" fill-rule="evenodd" stroke="#000000" stroke-width="1pt" stroke-opacity="0.991228" d="m478.954102,391.831512c-13.459991,-2.359009 -26.502991,-3.88501 -39.962982,-5.411011c-17.623016,-4.44101 -26.504028,15.679993 -21.647003,30.804993c6.10498,13.460022 14.707977,25.255005 24.559998,36.632996c7.631989,8.602997 16.723999,9.995026 25.393982,7.076019c6.998016,-1.940002 13.460999,-6.243011 20.399017,-16.234009c3.052002,-8.604004 5.687988,-13.045013 9.574005,-23.729004c3.052002,-9.85199 -1.695038,-24.600006 -18.317017,-29.139984z"/>
   </g>
   <g id="svg_75" font-size="12px" stroke="#000000" stroke-opacity="0.991228">
    <g id="svg_76" fill="none" stroke="#000000" stroke-opacity="0.991228">
     <g id="svg_77" font-size="12px" fill="none" stroke="#000000" stroke-opacity="0.991228">
      <path id="svg_78" fill="none" fill-rule="evenodd" stroke="#000000" stroke-width="6.25" stroke-opacity="0.991228" d="m306.627228,506.800507c5.690002,13.343903 7.449982,18.414886 11.552979,31.717865c3.496002,12.289001 4.781006,19.794006 6.94104,37.257996"/>
      <path id="svg_79" fill="none" fill-rule="evenodd" stroke="#000000" stroke-width="6.25" stroke-opacity="0.991228" d="m478.481598,506.064484c-5.690002,13.343903 -7.449982,18.414886 -11.552979,31.717926c-3.496002,12.28894 -4.781006,19.793945 -6.94101,37.257996"/>
      <g id="svg_80" fill="none" stroke="#000000" stroke-opacity="0.991228">
       <path id="svg_81" fill="none" fill-rule="evenodd" stroke="#000000" stroke-width="5" stroke-opacity="0.991228" d="m330.911224,538.00238c14.717987,9.026978 40.16098,10.419006 62.955994,10.008972c25.394104,-0.128967 47.133087,-1.962952 61.409088,-10.596985"/>
       <path id="svg_82" fill="none" fill-rule="evenodd" stroke="#000000" stroke-width="5" stroke-opacity="0.991228" d="m336.062225,561.552368c16.237976,10.204041 35.333984,13.708008 57.325989,12.877991c22.842102,-0.555969 40.351105,-2.477966 56.001099,-13.171997"/>
       <g id="svg_83" fill="none" stroke="#000000" stroke-opacity="0.991228">
        <path id="svg_84" fill="none" fill-rule="evenodd" stroke="#000000" stroke-width="6.25" stroke-opacity="0.991228" d="m324.288208,573.914368c17.367004,20.947998 41.608002,24.585022 69.173004,25.315002c29.519104,1.077026 59.166077,-10.64502 66.819092,-25.313965"/>
        <g id="svg_85" fill="none" stroke="#000000" stroke-opacity="0.991228">
         <path id="svg_86" fill="none" fill-rule="evenodd" stroke="#000000" stroke-width="5" stroke-opacity="0.991228" d="m335.839233,542.526367l-0.416016,41.212036"/>
         <path id="svg_87" fill="none" fill-rule="evenodd" stroke="#000000" stroke-width="5" stroke-opacity="0.991228" d="m349.368195,546.8974l-0.207977,44.125977"/>
         <path id="svg_88" fill="none" fill-rule="evenodd" stroke="#000000" stroke-width="5" stroke-opacity="0.991228" d="m364.354187,548.770386l-0.415985,46.208008"/>
         <path id="svg_89" fill="none" fill-rule="evenodd" stroke="#000000" stroke-width="5" stroke-opacity="0.991228" d="m377.884216,549.811401l-0.209015,46.83197"/>
         <path id="svg_90" fill="none" fill-rule="evenodd" stroke="#000000" stroke-width="5" stroke-opacity="0.991228" d="m393.078217,550.227356l0,46.832031"/>
         <path id="svg_91" fill="none" fill-rule="evenodd" stroke="#000000" stroke-width="5" stroke-opacity="0.991228" d="m407.648285,550.019409l0.208038,46.83197"/>
         <path id="svg_92" fill="none" fill-rule="evenodd" stroke="#000000" stroke-width="5" stroke-opacity="0.991228" d="m420.761108,548.770386l0.415894,46"/>
         <path id="svg_93" fill="none" fill-rule="evenodd" stroke="#000000" stroke-width="5" stroke-opacity="0.991228" d="m435.955292,546.273376l0.208008,44.125977"/>
         <path id="svg_94" fill="none" fill-rule="evenodd" stroke="#000000" stroke-width="5" stroke-opacity="0.991228" d="m449.692291,540.861389l0.417023,41.627991"/>
        </g>
       </g>
      </g>
     </g>
     <g id="svg_95" font-size="12px" fill="none" stroke="#000000" stroke-opacity="0.991228">
      <path id="svg_96" fill="none" fill-rule="evenodd" stroke="#000000" stroke-width="12.5" stroke-linecap="round" stroke-linejoin="round" stroke-opacity="0.991228" d="m265.893188,423.831512c-19.135986,-18.602997 -32.509979,-50.888 -34.365967,-85.752014c-2.015015,-38.419983 18.217987,-76.570007 48.536987,-98.320023c33.968994,-23.909012 90.766022,-30.522003 126.082092,-28.737c23.92099,0.016998 77.205994,12.419998 96.015015,26.427994c32.994019,23.990021 50.688049,58.040039 51.914001,96.850037c1.812988,38.983002 -14.605957,68.674988 -34.710999,87.205994"/>
      <path id="svg_97" fill="none" fill-rule="evenodd" stroke="#000000" stroke-width="12.5" stroke-linejoin="round" stroke-opacity="0.991228" d="m267.05722,314.537506c-7.752014,6.781982 -6.774017,16.97699 -5.377991,32.191986c1.10199,11.559998 8.477997,22.938995 8.865997,33.5c2.711975,22.285004 -3.876007,44.570007 -6.97699,62.786011c-2.132019,20.928009 3.876984,38.950012 11.627991,45.925995c7.750977,6.880005 17.755981,9.729004 28.267975,12.935974c9.550995,2.497955 14.504028,6.842041 21.728027,12.227936c8.605988,9.136963 10.658997,16.69397 10.464966,25.995972"/>
      <path id="svg_98" fill="none" fill-rule="evenodd" stroke="#000000" stroke-width="12.5" stroke-linejoin="round" stroke-opacity="0.991228" d="m519.456116,313.955505c7.751892,6.781982 6.774048,16.97699 5.377991,32.191986c-1.102051,11.559998 -8.477966,22.938995 -8.865967,33.5c-2.712036,22.285004 3.875977,44.570007 6.976868,62.786011c2.132141,20.928009 -3.876892,38.950012 -11.627899,45.925995c-7.751038,6.880005 -21.937012,10.574982 -28.268005,12.936005c-7.376984,2.580963 -14.919983,7.257996 -21.727997,12.64389c-8.190002,7.888 -10.658997,16.278015 -10.464996,25.580017"/>
      <path id="svg_99" fill="none" fill-rule="evenodd" stroke="#000000" stroke-width="12.5" stroke-opacity="0.991228" d="m289.216217,499.229462c6.937988,16.789948 14.291992,33.16391 14.985992,50.369904c-3.190979,13.876038 -2.220001,30.25 1.248993,43.294006c4.44101,17.900024 21.786011,39.130005 39.132019,46.207031c17.760986,6.451965 28.861969,8.117981 48.703979,8.117981"/>
      <path id="svg_100" fill="none" fill-rule="evenodd" stroke="#000000" stroke-width="12.5" stroke-opacity="0.991228" d="m496.318115,499.229462c-6.938019,16.789948 -14.292023,33.16391 -14.986023,50.369904c3.19101,13.876038 2.220001,30.25 -1.248993,43.294006c-4.44101,17.900024 -21.993988,38.505981 -39.339996,45.583008c-17.345001,7.077026 -28.445007,8.742004 -48.287903,8.742004"/>
     </g>
    </g>
    <g id="svg_101" stroke="#000000" stroke-opacity="0.991228">
     <path id="svg_102" fill="none" fill-rule="evenodd" stroke="#000000" stroke-width="12.5" stroke-linejoin="round" stroke-opacity="0.991228" d="m485.703308,577.906372l68.272034,31.638c8.324951,3.468994 14.984985,2.359009 21.22998,0.416016c9.852051,-2.914001 17.621948,-1.247986 25.80896,2.08197c9.851929,4.994995 10.13092,12.072021 3.747864,19.149048c-5.82782,6.79895 -11.656799,10.267944 -18.732788,17.066956c-1.527039,10.962036 -0.55603,21.092041 -5.413025,31.222046c-6.10498,8.879944 -12.627075,7.353943 -22.89502,-2.082031c-10.406982,-8.049011 -6.661011,-16.929016 -21.646973,-29.973022l-63.276031,-32.885986l0,0"/>
     <path id="svg_103" fill="none" fill-rule="evenodd" stroke="#000000" stroke-width="12.5" stroke-linejoin="round" stroke-opacity="0.991228" d="m299.207214,577.490356c-22.756989,12.072021 -43.432007,23.311035 -69.519012,33.302002c-21.230988,5.27301 -20.39798,-7.769958 -46.207977,0.833008c-7.354004,5.828003 -7.215027,14.153015 -1.249023,20.397034c6.938995,6.799988 11.795013,11.10199 17.901001,17.06897c1.942993,8.603027 2.220001,15.957031 3.330017,26.225037c4.162994,12.627991 13.320984,11.93396 21.22998,5.828979c3.469025,-4.302002 7.770996,-8.187012 10.407013,-12.905029c3.608002,-6.243958 7.631989,-13.320984 12.488983,-19.148987l62.859009,-33.302979"/>
     <path id="svg_104" fill="none" fill-rule="evenodd" stroke="#000000" stroke-width="12.5" stroke-linecap="square" stroke-linejoin="round" stroke-opacity="0.991228" d="m495.694336,509.635468c25.809998,-12.765961 47.039978,-23.034973 70.35199,-34.551971c14.291931,-11.932983 10.684998,-23.450989 22.064026,-32.053986c11.239014,-10.684998 18.731812,-8.048004 22.894897,-2.080994c4.023987,10.128998 5.96698,20.258972 5.411987,30.804993c10.684021,9.85199 16.374023,15.540985 22.47998,24.561981c0.832031,11.378021 -9.158997,16.094971 -21.230957,16.233948c-15.818909,2.91394 -18.316895,-7.076935 -36.216919,0l-94.49704,44.541931l0,0"/>
     <path id="svg_105" fill="none" fill-rule="evenodd" stroke="#000000" stroke-width="12.5" stroke-linejoin="round" stroke-opacity="0.991228" d="m291.615204,510.623505c-26.099976,-12.756042 -47.783997,-22.274017 -73.589996,-36.501007c-14.031006,-11.186005 -9.516998,-23.843994 -26.492004,-34.145996c-7.457001,-3.727997 -12.852997,-5.395996 -18.837982,4.709991c-3.827026,9.028015 -3.53302,18.643005 -4.121002,27.964996c-6.673004,7.162018 -14.227997,11.382019 -19.722015,20.311005c-7.947998,12.755981 4.119995,16.974976 10.596008,18.544983c18.446991,4.610931 25.118988,-3.729004 42.092987,-0.294983c33.067017,15.404877 66.427032,31.397858 98.31601,47.096893"/>
    </g>
   </g>
  </g>
 </g>
</svg>